<svg xmlns="http://www.w3.org/2000/svg" viewBox="0 0 128 128" role="img" aria-label="BLISS">
  <defs>
    <linearGradient id="gold" x1="0" y1="0" x2="1" y2="1">
      <stop offset="0%" stop-color="#F0D98A" />
      <stop offset="100%" stop-color="#D4AF37" />
    </linearGradient>
  </defs>

  <!-- solid dark disc for strong tab visibility -->
  <circle cx="64" cy="64" r="62" fill="#171717" />

  <!-- thick ring to make favicon appear larger -->
  <circle cx="64" cy="64" r="56" fill="none" stroke="url(#gold)" stroke-width="8" />

  <!-- simplified bold monogram for small sizes -->
  <path
    d="M44 34h22c12 0 20 7 20 17 0 7-4 12-10 14 8 2 13 8 13 16 0 11-9 18-22 18H44V34zm20 26c6 0 10-3 10-8 0-5-4-8-10-8H56v16h8zm2 29c7 0 11-3 11-9 0-5-4-9-11-9H56v18h10z"
    fill="url(#gold)"
  />
</svg>
